<svg width="181" height="181" viewBox="0 0 181 181" fill="none" xmlns="http://www.w3.org/2000/svg">
<path d="M90.282 0.447388C66.4208 0.474392 43.5446 9.96518 26.6722 26.8376C9.79978 43.71 0.308987 66.5862 0.281982 90.4474V163.428C0.287081 167.941 2.08186 172.267 5.27254 175.457C8.46323 178.648 12.7892 180.442 17.3015 180.447H90.282C114.151 180.447 137.043 170.965 153.922 154.087C170.8 137.209 180.282 114.317 180.282 90.4474C180.282 66.5779 170.8 43.6861 153.922 26.8078C137.043 9.9295 114.151 0.447388 90.282 0.447388ZM90.282 159.678H21.0512V90.4474C21.0512 76.7548 25.1115 63.3698 32.7187 51.9848C40.3259 40.5999 51.1382 31.7264 63.7885 26.4865C76.4388 21.2466 90.3588 19.8756 103.788 22.5469C117.218 25.2182 129.553 31.8117 139.236 41.4938C148.918 51.1759 155.511 63.5117 158.183 76.9411C160.854 90.3706 159.483 104.291 154.243 116.941C149.003 129.591 140.129 140.404 128.745 148.011C117.36 155.618 103.975 159.678 90.282 159.678ZM62.5888 93.9132C62.5888 96.6517 61.7767 99.3287 60.2553 101.606C58.7339 103.883 56.5714 105.657 54.0413 106.705C51.5113 107.753 48.7273 108.028 46.0414 107.493C43.3555 106.959 40.8884 105.64 38.952 103.704C37.0155 101.767 35.6968 99.3003 35.1626 96.6144C34.6283 93.9285 34.9025 91.1445 35.9505 88.6145C36.9985 86.0844 38.7732 83.9219 41.0501 82.4005C43.3271 80.8791 46.0041 80.067 48.7427 80.067C52.4136 80.0712 55.933 81.5313 58.5287 84.1271C61.1245 86.7228 62.5846 90.2422 62.5888 93.9132ZM104.127 93.9132C104.127 96.6517 103.315 99.3287 101.794 101.606C100.272 103.883 98.1099 105.657 95.5798 106.705C93.0498 107.753 90.2658 108.028 87.5799 107.493C84.894 106.959 82.4268 105.64 80.4904 103.704C78.554 101.767 77.2353 99.3003 76.701 96.6144C76.1668 93.9285 76.441 91.1445 77.4889 88.6145C78.5369 86.0844 80.3116 83.9219 82.5886 82.4005C84.8656 80.8791 87.5426 80.067 90.2811 80.067C93.9521 80.0712 97.4715 81.5313 100.067 84.1271C102.663 86.7228 104.123 90.2422 104.127 93.9132ZM145.666 93.9132C145.666 96.6517 144.854 99.3287 143.332 101.606C141.811 103.883 139.648 105.657 137.118 106.705C134.588 107.753 131.804 108.028 129.118 107.493C126.432 106.959 123.965 105.64 122.029 103.704C120.092 101.767 118.774 99.3003 118.239 96.6144C117.705 93.9285 117.979 91.1445 119.027 88.6145C120.075 86.0844 121.85 83.9219 124.127 82.4005C126.404 80.8791 129.081 80.067 131.82 80.067C135.491 80.0712 139.01 81.5313 141.606 84.1271C144.201 86.7228 145.662 90.2422 145.666 93.9132Z" fill="#4F9649"/>
</svg>
