<svg width="201" height="199" viewBox="0 0 201 199" fill="none" xmlns="http://www.w3.org/2000/svg">
<ellipse cx="100.282" cy="99.4474" rx="100" ry="99" fill="#4F9649"/>
<path d="M106.282 29.4474C87.7233 29.4684 69.9307 36.8501 56.8077 49.9731C43.6847 63.0961 36.303 80.8887 36.282 99.4474V156.21C36.2859 159.72 37.6819 163.084 40.1635 165.566C42.6452 168.048 46.0099 169.444 49.5194 169.447H106.282C124.847 169.447 142.652 162.072 155.779 148.945C168.907 135.817 176.282 118.013 176.282 99.4474C176.282 80.8822 168.907 63.0775 155.779 49.9499C142.652 36.8224 124.847 29.4474 106.282 29.4474ZM106.282 153.294H52.4358V99.4474C52.4358 88.7976 55.5938 78.387 61.5105 69.5321C67.4272 60.6771 75.8369 53.7755 85.6759 49.7C95.515 45.6245 106.342 44.5582 116.787 46.6359C127.232 48.7135 136.826 53.8419 144.357 61.3724C151.887 68.9029 157.016 78.4974 159.094 88.9425C161.171 99.3877 160.105 110.214 156.029 120.053C151.954 129.893 145.052 138.302 136.197 144.219C127.342 150.136 116.932 153.294 106.282 153.294ZM84.7428 102.143C84.7428 104.273 84.1112 106.355 82.9279 108.126C81.7446 109.897 80.0626 111.277 78.0948 112.092C76.127 112.908 73.9617 113.121 71.8726 112.705C69.7836 112.29 67.8647 111.264 66.3586 109.758C64.8525 108.252 63.8268 106.333 63.4113 104.244C62.9958 102.155 63.209 99.9896 64.0241 98.0218C64.8392 96.054 66.2196 94.372 67.9906 93.1887C69.7615 92.0054 71.8437 91.3738 73.9736 91.3738C76.8288 91.377 79.5661 92.5127 81.585 94.5316C83.6039 96.5505 84.7396 99.2878 84.7428 102.143ZM117.051 102.143C117.051 104.273 116.419 106.355 115.236 108.126C114.052 109.897 112.37 111.277 110.403 112.092C108.435 112.908 106.269 113.121 104.18 112.705C102.091 112.29 100.172 111.264 98.6663 109.758C97.1602 108.252 96.1345 106.333 95.719 104.244C95.3035 102.155 95.5167 99.9896 96.3318 98.0218C97.1469 96.054 98.5273 94.372 100.298 93.1887C102.069 92.0054 104.151 91.3738 106.281 91.3738C109.136 91.377 111.874 92.5127 113.893 94.5316C115.912 96.5505 117.047 99.2878 117.051 102.143ZM149.358 102.143C149.358 104.273 148.727 106.355 147.543 108.126C146.36 109.897 144.678 111.277 142.71 112.092C140.742 112.908 138.577 113.121 136.488 112.705C134.399 112.29 132.48 111.264 130.974 109.758C129.468 108.252 128.442 106.333 128.027 104.244C127.611 102.155 127.824 99.9896 128.64 98.0218C129.455 96.054 130.835 94.372 132.606 93.1887C134.377 92.0054 136.459 91.3738 138.589 91.3738C141.444 91.377 144.181 92.5127 146.2 94.5316C148.219 96.5505 149.355 99.2878 149.358 102.143Z" fill="black"/>
</svg>
