<svg width="201" height="199" viewBox="0 0 201 199" fill="none" xmlns="http://www.w3.org/2000/svg">
<ellipse cx="100.282" cy="99.4474" rx="100" ry="99" fill="#4F9649"/>
<path d="M170.208 99.9234L100.284 34.4474L30.3594 99.731C28.9914 101.008 28.9152 103.156 30.1935 104.525C31.4706 105.892 33.6178 105.969 34.9848 104.689L100.279 43.7318L165.576 104.875C166.231 105.488 167.062 105.791 167.892 105.791C168.796 105.791 169.7 105.431 170.367 104.716C171.646 103.348 171.576 101.203 170.208 99.9234ZM148.871 101.268C146.999 101.268 145.481 102.788 145.481 104.66V156.665H118.361V120.487H82.2017V156.665H55.0828V104.66C55.0828 102.788 53.5661 101.268 51.693 101.268C49.819 101.268 48.3026 102.788 48.3026 104.66V163.447H88.982V127.271H111.582V163.447H152.26V104.66C152.26 102.788 150.742 101.268 148.871 101.268ZM125.142 52.6557H145.481V70.7438C145.481 72.6186 146.999 74.1362 148.871 74.1362C150.742 74.1362 152.26 72.6186 152.26 70.7438V45.8728H125.141C123.269 45.8728 121.751 47.3895 121.751 49.2643C121.751 51.1384 123.269 52.6558 125.141 52.6558L125.142 52.6557Z" fill="black"/>
</svg>
