<svg width="201" height="201" viewBox="0 0 201 201" fill="none" xmlns="http://www.w3.org/2000/svg">
<path d="M198.77 101.961L100.285 0.447388L1.79941 101.662C-0.127336 103.643 -0.234681 106.973 1.56587 109.094C3.36452 111.215 6.38882 111.334 8.31414 109.35L100.277 14.8419L192.245 109.637C193.167 110.588 194.339 111.057 195.508 111.057C196.78 111.057 198.054 110.5 198.993 109.391C200.795 107.271 200.696 103.944 198.77 101.961ZM168.717 104.046C166.081 104.046 163.942 106.402 163.942 109.304V189.931H125.745V133.843H74.8168V189.931H36.6211V109.304C36.6211 106.402 34.4849 104.046 31.8468 104.046C29.2073 104.046 27.0716 106.402 27.0716 109.304V200.447H84.3666V144.359H116.197V200.447H173.49V109.304C173.491 106.402 171.352 104.046 168.717 104.046ZM135.295 28.6773H163.942V56.7209C163.942 59.6276 166.081 61.9804 168.717 61.9804C171.352 61.9804 173.491 59.6276 173.491 56.7209V18.1611H135.295C132.659 18.1611 130.52 20.5127 130.52 23.4193C130.52 26.3249 132.659 28.6775 135.295 28.6775L135.295 28.6773Z" fill="#4F9649"/>
</svg>
