<svg width="219" height="219" viewBox="0 0 219 219" fill="none" xmlns="http://www.w3.org/2000/svg">
<path d="M175.341 156.545C179.616 155.184 181.977 150.618 180.614 146.348C179.251 142.078 174.68 139.719 170.405 141.08L175.341 156.545ZM109.28 151.435C104.795 151.556 101.257 155.286 101.378 159.767C101.5 164.247 105.234 167.781 109.72 167.66L109.28 151.435ZM165.571 152.287C167.541 156.315 172.405 157.986 176.438 156.02C180.47 154.052 182.143 149.194 180.174 145.165L165.571 152.287ZM165.944 134.551L158.492 137.784C158.54 137.895 158.591 138.004 158.643 138.112L165.944 134.551ZM155.456 95.9419L163.522 94.9647C163.508 94.8468 163.49 94.7299 163.471 94.6131L155.456 95.9419ZM109.574 43.2982C105.087 43.2982 101.449 46.9317 101.449 51.4138C101.449 55.896 105.087 59.5295 109.574 59.5295V43.2982ZM109.574 59.5295C114.061 59.5295 117.698 55.896 117.698 51.4138C117.698 46.9317 114.061 43.2982 109.574 43.2982V59.5295ZM63.544 95.9527L55.5294 94.6206C55.5098 94.7386 55.4928 94.8565 55.4785 94.9745L63.544 95.9527ZM53.0558 134.551L60.3568 138.112C60.4094 138.004 60.4598 137.895 60.5077 137.784L53.0558 134.551ZM38.826 145.165C36.8572 149.194 38.5301 154.052 42.5623 156.02C46.5946 157.986 51.4592 156.315 53.428 152.287L38.826 145.165ZM101.449 51.4138C101.449 55.896 105.087 59.5295 109.574 59.5295C114.061 59.5295 117.698 55.896 117.698 51.4138H101.449ZM117.698 33.1157C117.698 28.6336 114.061 25 109.574 25C105.087 25 101.449 28.6336 101.449 33.1157H117.698ZM101.449 51.4138C101.449 55.896 105.087 59.5295 109.574 59.5295C114.061 59.5295 117.698 55.896 117.698 51.4138H101.449ZM117.698 33.1157C117.698 28.6336 114.061 25 109.574 25C105.087 25 101.449 28.6336 101.449 33.1157H117.698ZM48.5948 141.08C44.3196 139.719 39.749 142.078 38.3861 146.348C37.0232 150.618 39.384 155.184 43.6591 156.545L48.5948 141.08ZM109.28 167.66C113.766 167.781 117.5 164.247 117.621 159.767C117.743 155.286 114.205 151.556 109.72 151.435L109.28 167.66ZM96.5003 157.805C96.5003 153.323 92.8626 149.689 88.3756 149.689C83.8884 149.689 80.2509 153.323 80.2509 157.805H96.5003ZM138.802 157.805C138.802 153.323 135.164 149.689 130.677 149.689C126.19 149.689 122.553 153.323 122.553 157.805H138.802ZM170.405 141.08C150.588 147.391 130.021 150.874 109.28 151.435L109.72 167.66C131.99 167.059 154.071 163.318 175.341 156.545L170.405 141.08ZM180.174 145.165L173.245 130.99L158.643 138.112L165.571 152.287L180.174 145.165ZM173.396 131.318C168.374 119.77 165.046 107.519 163.522 94.9647L147.39 96.919C149.103 111.023 152.843 124.794 158.492 137.784L173.396 131.318ZM163.471 94.6131C161.169 80.7615 156.266 67.905 147.359 58.4255C138.235 48.7163 125.607 43.2982 109.574 43.2982V59.5295C121.625 59.5295 129.789 63.4444 135.511 69.5338C141.448 75.8527 145.445 85.2602 147.441 97.2707L163.471 94.6131ZM109.574 43.2982C93.5385 43.2982 80.8829 48.7136 71.7275 58.4138C62.7832 67.8904 57.8398 80.7494 55.5294 94.6206L71.5585 97.2848C73.5575 85.2832 77.5814 75.8728 83.5509 69.5482C89.3092 63.4471 97.5143 59.5295 109.574 59.5295V43.2982ZM55.4785 94.9745C53.9531 107.526 50.6246 119.773 45.6038 131.318L60.5077 137.784C66.1558 124.798 69.8959 111.031 71.6095 96.9309L55.4785 94.9745ZM45.7548 130.99L38.826 145.165L53.428 152.287L60.3568 138.112L45.7548 130.99ZM117.698 51.4138V33.1157H101.449V51.4138H117.698ZM117.698 51.4138V33.1157H101.449V51.4138H117.698ZM43.6591 156.545C64.9284 163.318 87.0099 167.059 109.28 167.66L109.72 151.435C88.9796 150.874 68.4118 147.391 48.5948 141.08L43.6591 156.545ZM80.2509 157.805V163.215H96.5003V157.805H80.2509ZM80.2509 163.215C80.2509 179.471 93.1648 193 109.526 193V176.769C102.525 176.769 96.5003 170.895 96.5003 163.215H80.2509ZM109.526 193C125.887 193 138.802 179.471 138.802 163.215H122.553C122.553 170.895 116.527 176.769 109.526 176.769V193ZM138.802 163.215V157.805H122.553V163.215H138.802Z" fill="#4F9649"/>
</svg>
