<svg width="201" height="201" viewBox="0 0 201 201" fill="none" xmlns="http://www.w3.org/2000/svg">
<ellipse cx="99.7823" cy="100.947" rx="95" ry="94.05" fill="#4F9649"/>
<path d="M148.43 137.169C151.719 136.121 153.535 132.604 152.487 129.316C151.439 126.027 147.922 124.211 144.634 125.259L148.43 137.169ZM97.6128 133.233C94.1628 133.326 91.4411 136.199 91.5344 139.65C91.6278 143.1 94.5003 145.822 97.9511 145.728L97.6128 133.233ZM140.915 133.89C142.43 136.991 146.172 138.278 149.274 136.764C152.376 135.249 153.663 131.507 152.149 128.405L140.915 133.89ZM141.202 120.231L135.469 122.721C135.506 122.806 135.545 122.89 135.585 122.973L141.202 120.231ZM133.134 90.4973L139.339 89.7448C139.328 89.654 139.314 89.564 139.299 89.474L133.134 90.4973ZM97.8386 49.9557C94.3869 49.9557 91.5886 52.7539 91.5886 56.2057C91.5886 59.6574 94.3869 62.4557 97.8386 62.4557V49.9557ZM97.8386 62.4557C101.29 62.4557 104.089 59.6574 104.089 56.2057C104.089 52.7539 101.29 49.9557 97.8386 49.9557V62.4557ZM62.4301 90.5057L56.2649 89.4798C56.2498 89.5707 56.2367 89.6615 56.2257 89.7523L62.4301 90.5057ZM54.362 120.231L59.9784 122.973C60.0189 122.89 60.0576 122.806 60.0944 122.721L54.362 120.231ZM43.4157 128.405C41.9012 131.507 43.188 135.249 46.2899 136.764C49.3917 138.278 53.1339 136.991 54.6484 133.89L43.4157 128.405ZM91.5886 56.2057C91.5886 59.6574 94.3869 62.4557 97.8386 62.4557C101.29 62.4557 104.089 59.6574 104.089 56.2057H91.5886ZM104.089 42.114C104.089 38.6623 101.29 35.864 97.8386 35.864C94.3869 35.864 91.5886 38.6623 91.5886 42.114H104.089ZM91.5886 56.2057C91.5886 59.6574 94.3869 62.4557 97.8386 62.4557C101.29 62.4557 104.089 59.6574 104.089 56.2057H91.5886ZM104.089 42.114C104.089 38.6623 101.29 35.864 97.8386 35.864C94.3869 35.864 91.5886 38.6623 91.5886 42.114H104.089ZM50.9304 125.259C47.6417 124.211 44.1257 126.027 43.0773 129.316C42.0289 132.604 43.845 136.121 47.1336 137.169L50.9304 125.259ZM97.6128 145.728C101.064 145.822 103.936 143.1 104.029 139.65C104.123 136.199 101.401 133.326 97.9511 133.233L97.6128 145.728ZM87.7819 138.139C87.7819 134.687 84.9836 131.889 81.532 131.889C78.0802 131.889 75.282 134.687 75.282 138.139H87.7819ZM120.323 138.139C120.323 134.687 117.524 131.889 114.073 131.889C110.621 131.889 107.823 134.687 107.823 138.139H120.323ZM144.634 125.259C129.389 130.119 113.568 132.802 97.6128 133.233L97.9511 145.728C115.083 145.266 132.069 142.385 148.43 137.169L144.634 125.259ZM152.149 128.405L146.819 117.488L135.585 122.973L140.915 133.89L152.149 128.405ZM146.934 117.741C143.071 108.847 140.511 99.4132 139.339 89.7448L126.929 91.2498C128.247 102.112 131.124 112.716 135.469 122.721L146.934 117.741ZM139.299 89.474C137.529 78.8068 133.757 68.9058 126.905 61.6054C119.887 54.1283 110.173 49.9557 97.8386 49.9557V62.4557C107.109 62.4557 113.389 65.4706 117.791 70.1601C122.359 75.0264 125.433 82.2713 126.969 91.5207L139.299 89.474ZM97.8386 49.9557C85.5036 49.9557 75.7682 54.1262 68.7254 61.5964C61.8449 68.8945 58.0422 78.7974 56.2649 89.4798L68.5954 91.5315C70.1331 82.2889 73.2285 75.0418 77.8205 70.1712C82.2502 65.4727 88.562 62.4557 97.8386 62.4557V49.9557ZM56.2257 89.7523C55.0523 99.4182 52.4919 108.85 48.6295 117.741L60.0944 122.721C64.4393 112.72 67.3164 102.117 68.6346 91.259L56.2257 89.7523ZM48.7457 117.488L43.4157 128.405L54.6484 133.89L59.9784 122.973L48.7457 117.488ZM104.089 56.2057V42.114H91.5886V56.2057H104.089ZM104.089 56.2057V42.114H91.5886V56.2057H104.089ZM47.1336 137.169C63.4951 142.385 80.4814 145.266 97.6128 145.728L97.9511 133.233C81.9966 132.802 66.1747 130.119 50.9304 125.259L47.1336 137.169ZM75.282 138.139V142.306H87.7819V138.139H75.282ZM75.282 142.306C75.282 154.824 85.2161 165.243 97.8019 165.243V152.743C92.4161 152.743 87.7819 148.22 87.7819 142.306H75.282ZM97.8019 165.243C110.388 165.243 120.323 154.824 120.323 142.306H107.823C107.823 148.22 103.188 152.743 97.8019 152.743V165.243ZM120.323 142.306V138.139H107.823V142.306H120.323Z" fill="black"/>
</svg>
