<svg width="208" height="189" viewBox="0 0 208 189" fill="none" xmlns="http://www.w3.org/2000/svg">
<ellipse cx="104.282" cy="94.4474" rx="103.5" ry="94.05" fill="#4F9649"/>
<g clip-path="url(#clip0_72_145)">
<path d="M105.064 98C99.9033 98 94.8582 96.4695 90.567 93.6022C86.2758 90.7349 82.9312 86.6596 80.9562 81.8914C78.9812 77.1233 78.4644 71.8766 79.4713 66.8147C80.4781 61.7529 82.9634 57.1033 86.6128 53.4539C90.2621 49.8046 94.9117 47.3193 99.9736 46.3124C105.035 45.3056 110.282 45.8223 115.05 47.7974C119.818 49.7724 123.894 53.117 126.761 57.4082C129.628 61.6994 131.159 66.7445 131.159 71.9055C131.159 78.8262 128.41 85.4634 123.516 90.3571C118.622 95.2507 111.985 98 105.064 98ZM105.064 58.8583C102.484 58.8583 99.9613 59.6235 97.8157 61.0571C95.6701 62.4908 93.9978 64.5285 93.0103 66.9125C92.0227 69.2966 91.7644 71.92 92.2678 74.4509C92.7712 76.9818 94.0139 79.3066 95.8386 81.1313C97.6632 82.956 99.988 84.1986 102.519 84.702C105.05 85.2055 107.673 84.9471 110.057 83.9596C112.441 82.9721 114.479 81.2998 115.913 79.1541C117.346 77.0085 118.112 74.486 118.112 71.9055C118.112 68.4452 116.737 65.1265 114.29 62.6797C111.843 60.2329 108.525 58.8583 105.064 58.8583Z" fill="#040404"/>
<path d="M150.077 157.795L137.213 155.629C137.998 150.954 137.754 146.165 136.499 141.593C135.244 137.022 133.007 132.779 129.945 129.16C126.883 125.542 123.069 122.634 118.769 120.639C114.469 118.644 109.785 117.611 105.045 117.611C100.304 117.611 95.6209 118.644 91.3205 120.639C87.0201 122.634 83.2061 125.542 80.1442 129.16C77.0822 132.779 74.8458 137.022 73.5907 141.593C72.3356 146.165 72.092 150.954 72.8768 155.629L60.0514 157.795C58.9502 151.249 59.2893 144.542 61.0451 138.14C62.8009 131.739 65.9312 125.797 70.218 120.729C74.5047 115.661 79.8448 111.588 85.8663 108.795C91.8879 106.001 98.446 104.554 105.084 104.554C111.722 104.554 118.28 106.001 124.302 108.795C130.323 111.588 135.663 115.661 139.95 120.729C144.237 125.797 147.367 131.739 149.123 138.14C150.879 144.542 151.218 151.249 150.116 157.795H150.077Z" fill="#040404"/>
<path d="M105.064 176.283C89.5814 176.283 74.4461 171.692 61.5725 163.09C48.6988 154.488 38.6651 142.262 32.74 127.958C26.8149 113.653 25.2646 97.9131 28.2852 82.7276C31.3058 67.5421 38.7616 53.5934 49.7097 42.6453C60.6578 31.6971 74.6066 24.2414 89.7921 21.2208C104.978 18.2002 120.718 19.7505 135.022 25.6756C149.327 31.6006 161.553 41.6344 170.155 54.508C178.757 67.3817 183.348 82.517 183.348 98C183.325 118.755 175.07 138.654 160.394 153.33C145.718 168.006 125.82 176.261 105.064 176.283ZM105.064 32.7638C92.1619 32.7638 79.5491 36.5898 68.8211 43.7581C58.0931 50.9263 49.7316 61.1148 44.794 73.0352C39.8565 84.9555 38.5646 98.0723 41.0817 110.727C43.5989 123.381 49.812 135.005 58.9355 144.129C68.0589 153.252 79.6829 159.465 92.3374 161.983C104.992 164.5 118.109 163.208 130.029 158.27C141.95 153.333 152.138 144.971 159.306 134.243C166.474 123.515 170.301 110.902 170.301 98C170.282 80.7041 163.402 64.1221 151.172 51.892C138.942 39.662 122.36 32.7828 105.064 32.7638Z" fill="#040404"/>
</g>
<defs>
<clipPath id="clip0_72_145">
<rect width="156.567" height="156.567" fill="white" transform="translate(26.781 19.7166)"/>
</clipPath>
</defs>
</svg>
