<svg width="201" height="201" viewBox="0 0 201 201" fill="none" xmlns="http://www.w3.org/2000/svg">
<g clip-path="url(#clip0_35_73)">
<path d="M100.282 100.447C93.6893 100.447 87.2446 98.4925 81.763 94.8298C76.2813 91.167 72.0089 85.9611 69.486 79.8702C66.9631 73.7794 66.3029 67.0771 67.5891 60.6111C68.8753 54.1451 72.05 48.2056 76.7117 43.5439C81.3735 38.8821 87.3129 35.7074 93.779 34.4213C100.245 33.1351 106.947 33.7952 113.038 36.3181C119.129 38.841 124.335 43.1135 127.998 48.5951C131.66 54.0767 133.615 60.5214 133.615 67.1141C133.615 75.9547 130.103 84.4331 123.852 90.6843C117.601 96.9355 109.123 100.447 100.282 100.447ZM100.282 50.4474C96.9856 50.4474 93.7633 51.4249 91.0225 53.2563C88.2816 55.0876 86.1454 57.6906 84.884 60.736C83.6225 63.7815 83.2925 67.1326 83.9355 70.3656C84.5786 73.5986 86.166 76.5683 88.4969 78.8992C90.8277 81.2301 93.7974 82.8174 97.0305 83.4605C100.263 84.1036 103.615 83.7736 106.66 82.5121C109.705 81.2506 112.308 79.1144 114.14 76.3736C115.971 73.6328 116.949 70.4105 116.949 67.1141C116.949 62.6938 115.193 58.4546 112.067 55.329C108.941 52.2034 104.702 50.4474 100.282 50.4474Z" fill="#4F9649"/>
<path d="M157.782 176.831L141.349 174.064C142.351 168.092 142.04 161.973 140.437 156.134C138.834 150.295 135.977 144.875 132.065 140.252C128.154 135.629 123.282 131.915 117.789 129.367C112.295 126.819 106.312 125.499 100.257 125.499C94.2015 125.499 88.2188 126.819 82.7254 129.367C77.2321 131.915 72.3601 135.629 68.4487 140.252C64.5373 144.875 61.6805 150.295 60.0772 156.134C58.474 161.973 58.1628 168.092 59.1653 174.064L42.782 176.831C41.3753 168.469 41.8084 159.901 44.0513 151.723C46.2942 143.546 50.2929 135.956 55.7688 129.482C61.2448 123.008 68.0663 117.805 75.7583 114.237C83.4502 110.669 91.8276 108.82 100.307 108.82C108.786 108.82 117.164 110.669 124.856 114.237C132.548 117.805 139.369 123.008 144.845 129.482C150.321 135.956 154.32 143.546 156.563 151.723C158.806 159.901 159.239 168.469 157.832 176.831H157.782Z" fill="#4F9649"/>
<path d="M100.282 200.447C80.5039 200.447 61.1699 194.583 44.725 183.594C28.2801 172.606 15.4628 156.988 7.89407 138.716C0.325311 120.443 -1.65502 100.337 2.2035 80.9384C6.06202 61.5403 15.5861 43.722 29.5713 29.7368C43.5566 15.7515 61.3749 6.22743 80.773 2.3689C100.171 -1.48962 120.278 0.490716 138.55 8.05948C156.823 15.6282 172.441 28.4455 183.429 44.8904C194.417 61.3353 200.282 80.6693 200.282 100.447C200.253 126.96 189.708 152.379 170.961 171.126C152.214 189.874 126.795 200.419 100.282 200.447ZM100.282 17.1141C83.8002 17.1141 67.6886 22.0015 53.9845 31.1583C40.2804 40.3151 29.5994 53.33 23.2921 68.5571C16.9848 83.7843 15.3345 100.54 18.5499 116.705C21.7654 132.87 29.7021 147.719 41.3565 159.373C53.0108 171.027 67.8594 178.964 84.0245 182.18C100.19 185.395 116.945 183.745 132.172 177.437C147.399 171.13 160.414 160.449 169.571 146.745C178.728 133.041 183.615 116.929 183.615 100.447C183.591 78.3535 174.804 57.1714 159.181 41.5487C143.558 25.9259 122.376 17.1384 100.282 17.1141Z" fill="#4F9649"/>
</g>
<defs>
<clipPath id="clip0_35_73">
<rect width="200" height="200" fill="white" transform="translate(0.281982 0.447388)"/>
</clipPath>
</defs>
</svg>
