<svg width="201" height="201" viewBox="0 0 201 201" fill="none" xmlns="http://www.w3.org/2000/svg">
<g clip-path="url(#clip0_68_88)">
<path d="M0.281921 163.047V38.0474C0.281921 27.6474 3.94859 18.7807 11.2819 11.4474C18.6153 4.11405 27.4819 0.447388 37.8819 0.447388H162.882C173.149 0.447388 181.949 4.11405 189.282 11.4474C196.615 18.7807 200.282 27.6474 200.282 38.0474V163.047C200.282 173.447 196.615 182.247 189.282 189.447C181.949 196.647 173.149 200.314 162.882 200.447H37.8819C27.4819 200.447 18.6153 196.781 11.2819 189.447C3.94859 182.114 0.281921 173.314 0.281921 163.047ZM25.2819 163.047C25.2819 166.514 26.4819 169.447 28.8819 171.847C31.2819 174.247 34.2819 175.447 37.8819 175.447H162.882C166.215 175.447 169.149 174.247 171.682 171.847C174.215 169.447 175.415 166.514 175.282 163.047V38.0474C175.282 34.5807 174.082 31.6474 171.682 29.2474C169.282 26.8474 166.349 25.5807 162.882 25.4474H37.8819C34.4153 25.4474 31.4153 26.7141 28.8819 29.2474C26.3486 31.7807 25.1486 34.7141 25.2819 38.0474V163.047ZM50.2819 150.447V125.447H75.2819V150.447H50.2819ZM50.2819 113.047V88.0474H75.2819V113.047H50.2819ZM50.2819 75.4474V50.4474H75.2819V75.4474H50.2819ZM87.8819 150.447V125.447H150.282V150.447H87.8819ZM87.8819 113.047V88.0474H150.282V113.047H87.8819ZM87.8819 75.4474V50.4474H150.282V75.4474H87.8819Z" fill="#4F9649"/>
</g>
<defs>
<clipPath id="clip0_68_88">
<rect width="200" height="200" fill="white" transform="translate(0.281921 0.447388)"/>
</clipPath>
</defs>
</svg>
