<svg width="191" height="189" viewBox="0 0 191 189" fill="none" xmlns="http://www.w3.org/2000/svg">
<ellipse cx="95.2819" cy="94.4474" rx="95" ry="94.05" fill="#4F9649"/>
<g clip-path="url(#clip0_68_68)">
<path d="M30 134.69V53.44C30 46.68 32.3833 40.9167 37.15 36.15C41.9167 31.3833 47.68 29 54.44 29H135.69C142.363 29 148.083 31.3833 152.85 36.15C157.617 40.9167 160 46.68 160 53.44V134.69C160 141.45 157.617 147.17 152.85 151.85C148.083 156.53 142.363 158.913 135.69 159H54.44C47.68 159 41.9167 156.617 37.15 151.85C32.3833 147.083 30 141.363 30 134.69ZM46.25 134.69C46.25 136.943 47.03 138.85 48.59 140.41C50.15 141.97 52.1 142.75 54.44 142.75H135.69C137.857 142.75 139.763 141.97 141.41 140.41C143.057 138.85 143.837 136.943 143.75 134.69V53.44C143.75 51.1867 142.97 49.28 141.41 47.72C139.85 46.16 137.943 45.3367 135.69 45.25H54.44C52.1867 45.25 50.2367 46.0733 48.59 47.72C46.9433 49.3667 46.1633 51.2733 46.25 53.44V134.69ZM62.5 126.5V110.25H78.75V126.5H62.5ZM62.5 102.19V85.94H78.75V102.19H62.5ZM62.5 77.75V61.5H78.75V77.75H62.5ZM86.94 126.5V110.25H127.5V126.5H86.94ZM86.94 102.19V85.94H127.5V102.19H86.94ZM86.94 77.75V61.5H127.5V77.75H86.94Z" fill="#040404"/>
</g>
<defs>
<clipPath id="clip0_68_68">
<rect width="130" height="130" fill="white" transform="translate(30 29)"/>
</clipPath>
</defs>
</svg>
