<svg width="89" height="85" viewBox="0 0 89 85" fill="none" xmlns="http://www.w3.org/2000/svg">
<path d="M41.652 1.79945C42.4311 -0.599818 45.8259 -0.599818 46.6051 1.79945L55.2374 28.3662C55.5858 29.4391 56.5858 30.1656 57.714 30.1656H85.6478C88.1707 30.1656 89.2197 33.3938 87.1786 34.8766L64.5796 51.2956C63.6671 51.9587 63.2848 53.1342 63.6338 54.2071L72.2655 80.7738C73.0452 83.1732 70.2994 85.1686 68.2582 83.6858L45.6593 67.2665C44.7463 66.6035 43.5108 66.6035 42.5978 67.2665L19.9989 83.6858C17.9579 85.1686 15.2119 83.1732 15.9915 80.7738L24.6235 54.2071C24.9721 53.1342 24.5902 51.9587 23.6774 51.2956L1.07844 34.8766C-0.962447 33.3938 0.0864579 30.1656 2.60917 30.1656H30.5431C31.6713 30.1656 32.6711 29.4391 33.0198 28.3662L41.652 1.79945Z" fill="#FFF700"/>
</svg>
